<?xml version="1.0" encoding="utf-8"?>
<!-- Generator: Adobe Illustrator 19.0.0, SVG Export Plug-In . SVG Version: 6.00 Build 0)  -->
<svg version="1.1" baseProfile="tiny" id="圖層_1"
	 xmlns="http://www.w3.org/2000/svg" xmlns:xlink="http://www.w3.org/1999/xlink" x="0px" y="0px" viewBox="0 0 595.3 841.9"
	 xml:space="preserve">
<g id="XMLID_2_">
	<path id="XMLID_24_" fill="none" stroke="#FFFFFF" stroke-miterlimit="10" d="M724.7,171.3l-7.8-97.5l-90-29.5l-34.8,18.9l22.9-6.9
		c0.2,0,0.3,0.1,0.5,0.1c0.2,0,0.5-0.1,0.7,0L691,83.8c0.7,0.3,1.2,0.9,1.3,1.6l7.7,69.4c0,0.1-0.1,0.1-0.1,0.2
		c0,0.3-0.1,0.6-0.2,0.9c-0.1,0.1-0.1,0.2-0.2,0.3c0,0.1,0,0.1-0.1,0.2l-58.8,60.5L630,282.1L724.7,171.3z"/>
	<polygon id="XMLID_23_" fill="none" stroke="#FFFFFF" stroke-miterlimit="10" points="629.2,289.1 635.8,307.2 647.9,340.1 
		714.9,250.7 737.9,220.1 725.8,176 	"/>
	<polygon id="XMLID_22_" fill="none" stroke="#FFFFFF" stroke-miterlimit="10" points="739.3,210.4 740.4,214.6 758.2,173.9 
		729.3,173.9 	"/>
	<polygon id="XMLID_21_" fill="none" stroke="#FFFFFF" stroke-miterlimit="10" points="729.3,173.9 739.3,210.4 729.3,173.9 	"/>
	<polygon id="XMLID_20_" fill="none" stroke="#FFFFFF" stroke-miterlimit="10" points="744.3,137.3 721.7,84.1 728.6,170 758.3,170 
			"/>
	<polygon id="XMLID_19_" fill="none" stroke="#FFFFFF" stroke-miterlimit="10" points="758.3,170 744.3,137.3 758.3,170 	"/>
	<polygon id="XMLID_18_" fill="none" stroke="#FFFFFF" stroke-miterlimit="10" points="758.3,170 758.3,170 728.6,170 728.6,170 	
		"/>
	<polygon id="XMLID_17_" fill="none" stroke="#FFFFFF" stroke-miterlimit="10" points="758.3,170 758.3,170 758.3,170 758.3,170 	
		"/>
	<polygon id="XMLID_16_" fill="none" stroke="#FFFFFF" stroke-miterlimit="10" points="196.5,189.7 10.8,77.7 10.8,235.4 
		95.8,275.1 158.8,304.6 	"/>
	<polygon id="XMLID_15_" fill="none" stroke="#FFFFFF" stroke-miterlimit="10" points="10.8,235.4 95.8,275.1 10.8,235.4 	"/>
	<polygon id="XMLID_14_" fill="none" stroke="#FFFFFF" stroke-miterlimit="10" points="162.4,306 394.9,377.4 394.9,269.7 
		200.1,191.4 	"/>
	<polygon id="XMLID_13_" fill="none" stroke="#FFFFFF" stroke-miterlimit="10" points="625.5,290.5 398.8,270.5 398.8,377.8 
		508.7,362 644.6,342.5 	"/>
	<polygon id="XMLID_12_" fill="none" stroke="#FFFFFF" stroke-miterlimit="10" points="508.7,362 644.6,342.5 644.6,342.5 	"/>
	<polygon id="XMLID_11_" fill="none" stroke="#FFFFFF" stroke-miterlimit="10" points="625.5,290.5 644.6,342.5 644.6,342.5 
		625.5,290.5 	"/>
	<rect id="XMLID_10_" x="644.6" y="342.5" fill="none" stroke="#FFFFFF" stroke-miterlimit="10" width="0" height="0"/>
	<polygon id="XMLID_9_" fill="none" stroke="#FFFFFF" stroke-miterlimit="10" points="295.3,33.1 108,14.8 12.6,74.2 198.2,186.2 	
		"/>
	<polygon id="XMLID_8_" fill="none" stroke="#FFFFFF" stroke-miterlimit="10" points="295.3,33.1 108,14.8 295.3,33.1 	"/>
	<polygon id="XMLID_7_" fill="none" stroke="#FFFFFF" stroke-miterlimit="10" points="12.6,74.2 12.6,74.2 108,14.8 	"/>
	<polygon id="XMLID_6_" fill="none" stroke="#FFFFFF" stroke-miterlimit="10" points="498.9,170.7 299.3,34.3 201.8,187.9 
		396.4,266.1 409.1,254.3 	"/>
	<polygon id="XMLID_5_" fill="none" stroke="#FFFFFF" stroke-miterlimit="10" points="401.4,266.8 471.2,273 625.3,286.6 
		636.6,217.2 603.7,206.3 502.5,172.7 	"/>
	<polygon id="XMLID_4_" fill="none" stroke="#FFFFFF" stroke-miterlimit="10" points="636.6,217.2 603.7,206.3 636.6,217.2 	"/>
	<polygon id="XMLID_3_" fill="none" stroke="#FFFFFF" stroke-miterlimit="10" points="625.3,286.6 471.2,273 625.3,286.6 	"/>
</g>
</svg>
